<?xml version="1.0" encoding="UTF-8"?>
<svg xmlns="http://www.w3.org/2000/svg" viewBox="0 0 240 240" width="240" height="240">
  <defs>
    <symbol id="heart" viewBox="-12 -12 24 24">
      <path d="M0 8 C -12 -2 -10 -12 -4 -10 C -1 -9 0 -6 0 -4 C 0 -6 1 -9 4 -10 C 10 -12 12 -2 0 8 Z" fill="currentColor"></path>
    </symbol>
    <pattern id="hearts" x="0" y="0" width="120" height="120" patternUnits="userSpaceOnUse">
      <use href="#heart" x="20" y="25" width="20" height="20" color="#EC4899" transform="rotate(-12 30 35)"></use>
      <use href="#heart" x="75" y="20" width="14" height="14" color="#A855F7" transform="rotate(15 82 27)"></use>
      <use href="#heart" x="50" y="65" width="22" height="22" color="#FF1A8C" transform="rotate(-5 61 76)"></use>
      <use href="#heart" x="95" y="75" width="16" height="16" color="#EC4899" transform="rotate(20 103 83)"></use>
      <use href="#heart" x="10" y="85" width="14" height="14" color="#A855F7" transform="rotate(-20 17 92)"></use>
      <use href="#heart" x="100" y="40" width="10" height="10" color="#FCD34D" transform="rotate(8 105 45)"></use>
    </pattern>
  </defs>
  <rect width="240" height="240" fill="#FDF2F8"></rect>
  <rect width="240" height="240" fill="url(#hearts)"></rect>
</svg>